<svg width="196" height="196" viewBox="0 0 196 196" xmlns="http://www.w3.org/2000/svg" xmlns:xlink="http://www.w3.org/1999/xlink"><title>BB-8-196</title><defs><radialGradient cy="0%" fx="50%" fy="0%" r="100%" id="a"><stop stop-color="#515866" offset="0%"/><stop stop-color="#1C1F2B" offset="100%"/></radialGradient><path id="b" d="M0 0h196v196H0z"/><linearGradient x1="50%" y1="0%" x2="50%" y2="100%" id="c"><stop stop-opacity="0" offset="0%"/><stop stop-color="#1C1F2B" offset="100%"/></linearGradient><filter x="-50%" y="-50%" width="200%" height="200%" filterUnits="objectBoundingBox" id="d"><feMorphology radius="1" in="SourceAlpha" operator="dilate" result="shadowSpreadOuter1"/><feOffset in="shadowSpreadOuter1" result="shadowOffsetOuter1"/><feGaussianBlur stdDeviation="1.5" in="shadowOffsetOuter1" result="shadowBlurOuter1"/><feColorMatrix values="0 0 0 0 0.890196078 0 0 0 0 0.376470588 0 0 0 0 0.356862745 0 0 0 0.182608696 0" in="shadowBlurOuter1" result="shadowMatrixOuter1"/><feMerge><feMergeNode in="shadowMatrixOuter1"/><feMergeNode in="SourceGraphic"/></feMerge></filter></defs><g fill="none" fill-rule="evenodd"><use fill="url(#a)" xlink:href="#b"/><use xlink:href="#b"/><path fill="url(#c)" d="M-152 111h500v148h-500z"/><path fill="#F26D28" filter="url(#d)" d="M23 132h150v3H23z"/><path d="M28.5 119.97h18.516c8.53 0 15.673-4.928 15.673-13.27 0-5.75-3.48-8.974-7.97-10.743 3.16-1.58 6.13-4.803 6.13-9.416 0-6.76-5.06-10.8-14.16-10.8H28.5v44.24zm8.342-19.716h9.67c5.37 0 7.835 2.212 7.835 6.13 0 3.918-2.465 6.13-7.836 6.13h-9.66v-12.26zm0-17.19h9.226c4.677 0 6.7 1.58 6.7 4.93 0 3.35-2.023 4.93-6.7 4.93h-9.226v-9.86zm33.594 36.907h18.516c8.532 0 15.673-4.92 15.673-13.27 0-5.75-3.476-8.97-7.963-10.74 3.16-1.58 6.13-4.8 6.13-9.41 0-6.76-5.056-10.804-14.156-10.804h-18.2v44.236zm8.342-19.71h9.67c5.37 0 7.835 2.21 7.835 6.13s-2.465 6.13-7.836 6.13h-9.67v-12.26zm0-17.19h9.226c4.677 0 6.7 1.58 6.7 4.93 0 3.35-2.023 4.93-6.7 4.93h-9.226v-9.86zm35.452 20.48h13.145V97.1H114.23v6.444zm38.408 17.317c9.732 0 15.862-5.245 15.862-13.145 0-5.37-2.907-9.48-7.583-11.437 3.98-2.02 6.256-5.307 6.256-9.794 0-6.762-5.877-11.63-14.535-11.63-8.658 0-14.535 4.868-14.535 11.63 0 4.487 2.275 7.773 6.256 9.795-4.68 1.96-7.59 6.068-7.59 11.44 0 7.9 6.13 13.145 15.86 13.145zm0-6.825c-4.424 0-7.773-2.906-7.773-7.014 0-4.107 3.35-7.014 7.773-7.014 4.424 0 7.773 2.91 7.773 7.017 0 4.11-3.34 7.016-7.77 7.016zm-6.572-26.984c0-3.98 3.16-6.002 6.572-6.002 3.413 0 6.572 2.023 6.572 6.004 0 3.983-3.16 6.13-6.572 6.13s-6.572-2.147-6.572-6.13z" fill="#FFF"/></g></svg>