<svg width="250" height="250" viewBox="0 0 250 250" xmlns="http://www.w3.org/2000/svg" xmlns:xlink="http://www.w3.org/1999/xlink"><title>Circle</title><defs><radialGradient fx="50%" fy="50%" r="75.208%" id="c"><stop stop-color="#474F63" offset="0%"/><stop stop-color="#01030A" offset="100%"/></radialGradient><radialGradient cx="50.893%" fx="50.893%" fy="50%" r="100%" id="b"><stop stop-color="#FFF" stop-opacity=".051" offset="0%"/><stop stop-color="#FFF" stop-opacity=".051" offset="100%"/></radialGradient><filter x="-50%" y="-50%" width="200%" height="200%" filterUnits="objectBoundingBox" id="a"><feOffset in="SourceAlpha" result="shadowOffsetInner1"/><feGaussianBlur stdDeviation="15" in="shadowOffsetInner1" result="shadowBlurInner1"/><feComposite in="shadowBlurInner1" in2="SourceAlpha" operator="arithmetic" k2="-1" k3="1" result="shadowInnerInner1"/><feColorMatrix values="0 0 0 0 0 0 0 0 0 0 0 0 0 0 0 0 0 0 0.7 0" in="shadowInnerInner1" result="shadowMatrixInner1"/><feMerge><feMergeNode in="SourceGraphic"/><feMergeNode in="shadowMatrixInner1"/></feMerge></filter><ellipse id="d" cx="114.993" cy="114.625" rx="114.993" ry="114.625"/></defs><g fill="none" fill-rule="evenodd"><g filter="url(#a)" transform="translate(10 10)"><use stroke="url(#b)" stroke-width="10" fill="url(#c)" xlink:href="#d"/><use xlink:href="#d"/></g><g transform="translate(43.56 43.44)" stroke="#FFF"><ellipse stroke-opacity=".5" opacity=".5" cx="81.255" cy="80.995" rx="81.255" ry="80.995"/><ellipse opacity=".246" cx="81.174" cy="80.904" rx="51.708" ry="51.542"/><ellipse opacity=".097" cx="81.542" cy="81.26" rx="21.791" ry="21.721"/></g><path d="M118.86 29.985c0-.243.094-.487.28-.673l5.185-5.168c.18-.178.422-.28.675-.28.253 0 .496.102.675.28l5.184 5.168c.37.37.37.974 0 1.345-.38.372-.98.372-1.35 0L125 26.163l-4.51 4.495c-.37.372-.976.372-1.35 0-.186-.186-.28-.43-.28-.673zm12.28 190.577c0 .243-.094.487-.28.673l-5.185 5.168c-.18.178-.422.278-.675.278-.253 0-.496-.1-.675-.27l-5.184-5.17c-.37-.37-.37-.972 0-1.344.38-.372.98-.372 1.35 0l4.51 4.494 4.51-4.495c.37-.374.98-.374 1.35 0 .19.184.28.427.28.67zM30.397 130.73c-.243 0-.487-.092-.673-.278l-5.168-5.185c-.178-.18-.28-.42-.28-.675 0-.253.102-.496.28-.675l5.168-5.184c.37-.373.974-.373 1.346 0 .372.373.372.977 0 1.35l-4.494 4.51 4.494 4.508c.372.38.372.98 0 1.35-.186.19-.43.28-.673.28zm191.393-12.277c.243 0 .487.093.673.28l5.167 5.184c.18.18.28.422.28.675 0 .254-.1.496-.28.675l-5.167 5.184c-.372.38-.975.38-1.346 0-.372-.37-.372-.97 0-1.35l4.494-4.5-4.49-4.51c-.37-.372-.37-.976 0-1.35.19-.186.43-.28.678-.28z" fill="#FFF"/></g></svg>